# xmcd
#
# Track frame offsets: 
#        150
#        12512
#        23862
#        35915
#        47740
#        58030
#        69757
#        83975
#        96640
#        108752
#        120972
#        134022
#        147222
#        159387
#        173337
#        185925
#        198580
#        211627
#        224705
#        235705
#        249527
#        261207
#        272690
#        285717
#        298057
#        310020
#
# Disc length: 4306 seconds
#
# Revision: 8
# Processed by: cddbd v1.5.2PL0 Copyright (c) Steve Scherf et al.
# Submitted via: ExactAudioCopy v1.1
#
DISCID=8810d01a
DTITLE=Various Artist - Mercury Blues 'N' Rhythm Story 1945-1955 - Di
DTITLE=sc 8
DYEAR=1996
DGENRE=R&B
TTITLE0=Joyce Jackson - Lonely Blues (mono)
TTITLE1=Joyce Jackson - Body Rocking Daddy (mono)
TTITLE2=Joyce Jackson - Lovin' Blues (mono)
TTITLE3=Dinah Washington - New Blowtop Blues (mono)
TTITLE4=Joe Houston - Worry, Worry, Worry (mono)
TTITLE5=Paul Bascomb - Mumbles Blues (mono)
TTITLE6=Buddy Johnson - Hittin' On Me (mono)
TTITLE7=Zilla Mays - Don't Give My Good Love Away (mono)
TTITLE8=Zilla Mays - Thank You (mono)
TTITLE9=Zilla Mays - The Other Side (mono)
TTITLE10=Buddy Johnson - I'm Just Your Fool (mono)
TTITLE11=Buddy Johnson - Shut Your Big Mouth (Girl) (mono)
TTITLE12=Stomp Gordon - Sloppy Daddy Blues (mono)
TTITLE13=Stomp Gordon - Juicy Lucy (mono)
TTITLE14=Stomp Gordon - What's Her Whimsey, Dr. Kinsey (mono)
TTITLE15=Stomp Gordon - Walk Around The Corner (mono)
TTITLE16=Dinah Washington - Short John (mono)
TTITLE17=Jay Hawkins - This Is All (mono)
TTITLE18=Jay Hawkins - What That Is (mono)
TTITLE19=Jay Hawkins - (She Put The) Wamee (On Me) (mono)
TTITLE20=Jay Hawkins - Well I Tried (mono)
TTITLE21=Jay Hawkins - Talk About Me (mono)
TTITLE22=Titus Turner - Sweet And Slow (mono)
TTITLE23=Titus Turner - Big John (mono)
TTITLE24=Titus Turner - All Around the World (mono)
TTITLE25=Arthur Prysock - Woke Up This Morning (mono)
EXTD=
EXTT0=
EXTT1=
EXTT2=
EXTT3=
EXTT4=
EXTT5=
EXTT6=
EXTT7=
EXTT8=
EXTT9=
EXTT10=
EXTT11=
EXTT12=
EXTT13=
EXTT14=
EXTT15=
EXTT16=
EXTT17=
EXTT18=
EXTT19=
EXTT20=
EXTT21=
EXTT22=
EXTT23=
EXTT24=
EXTT25=
PLAYORDER=
